<svg width="221" height="26" viewBox="0 0 221 26" fill="none" xmlns="http://www.w3.org/2000/svg">
<path d="M11.84 25.6C8.21333 25.6 5.36 24.5067 3.28 22.32C1.22667 20.1333 0.2 17.0933 0.2 13.2C0.2 9.30667 1.38667 6.17333 3.76 3.8C6.13333 1.4 9.29333 0.2 13.24 0.2C15.2667 0.2 17.36 0.599999 19.52 1.4L18.24 5.6L13.36 2.96C9.94667 2.96 7.57333 3.68 6.24 5.12C4.90667 6.56 4.24 8.98667 4.24 12.4C4.24 15.7867 4.93333 18.4 6.32 20.24C7.73333 22.0533 9.56 22.96 11.8 22.96C14.04 22.96 16.2533 22.0533 18.44 20.24L19.72 23.72C17.32 24.9733 14.6933 25.6 11.84 25.6ZM25.1109 25L25.6709 17.08V8.68L25.1109 0.799999H29.5909L29.0309 8.72V17.12L29.5909 25H25.1109ZM53 25.12L51.88 22.52L39.64 7.16V17.12L40.2 25H36.2L36.76 17.08V8.68L36.2 0.879998L39.96 0.719998L41.08 3.4L52.6 17.88V8.68L52.04 0.799999H56.04L55.48 8.72V16.16L56.04 25L53 25.12ZM66.37 8.72V11.24H70.21L74.01 10.84L73.69 13.84H66.37V17.12L66.73 22.2H72.01L76.37 21.72L75.97 25.24L71.61 25H66.93L62.45 25.24L63.01 17.08V8.68L62.45 0.799999H76.01L75.65 4.08L71.17 3.6H66.73L66.37 8.72ZM101.232 25L101.392 17.08L100.792 6.92L94.0316 22.2L92.9116 22.32L85.0316 6.92L84.5916 17.12L84.8716 25H80.9116L81.8716 17.08L82.3116 8.68L82.0316 0.919998L86.1916 0.76L86.9116 3.4L93.6316 17.28L99.6716 2.8L100.112 0.879998L104.352 0.719998L104.072 8.72L104.512 17.12L105.472 25H101.232ZM108.439 25.04L116.959 3.64L117.719 0.879998L120.879 0.639999L129.679 25H124.999L123.799 18.96H113.919L112.479 25.04H108.439ZM119.079 4.72L115.039 16.16H122.879L119.079 4.72ZM131.31 25.32L130.87 23.48L144.03 3.56H136.55L131.67 5L131.19 0.799999H145.27L148.23 0.439999L148.67 2.32L135.59 22.2H143.03L148.19 20.6L148.67 25H134.03L131.31 25.32ZM163.354 25.6C159.807 25.6 157.047 24.5067 155.074 22.32C153.101 20.1067 152.114 17.04 152.114 13.12C152.114 9.2 153.194 6.06667 155.354 3.72C157.514 1.37333 160.381 0.2 163.954 0.2C167.527 0.2 170.301 1.29333 172.274 3.48C174.247 5.66667 175.234 8.72 175.234 12.64C175.234 16.56 174.141 19.7067 171.954 22.08C169.794 24.4267 166.927 25.6 163.354 25.6ZM156.154 13.12C156.154 16.24 156.861 18.6667 158.274 20.4C159.687 22.1067 161.674 22.96 164.234 22.96C165.754 22.96 167.234 22.6533 168.674 22.04C169.367 21.3467 169.954 20.1067 170.434 18.32C170.941 16.5067 171.194 14.6533 171.194 12.76C171.194 9.53333 170.487 7.08 169.074 5.4C167.687 3.69333 165.661 2.84 162.994 2.84C161.474 2.84 160.034 3.14667 158.674 3.76C157.981 4.42667 157.381 5.68 156.874 7.52C156.394 9.36 156.154 11.2267 156.154 13.12ZM197.453 25.12L196.333 22.52L184.093 7.16V17.12L184.653 25H180.653L181.213 17.08V8.68L180.653 0.879998L184.413 0.719998L185.533 3.4L197.053 17.88V8.68L196.493 0.799999H200.493L199.933 8.72V16.16L200.493 25L197.453 25.12ZM210.823 8.72V11.24H214.663L218.463 10.84L218.143 13.84H210.823V17.12L211.183 22.2H216.463L220.823 21.72L220.423 25.24L216.063 25H211.383L206.903 25.24L207.463 17.08V8.68L206.903 0.799999H220.463L220.103 4.08L215.623 3.6H211.183L210.823 8.72Z" fill="url(#paint0_linear_1_5)"/>
<defs>
<linearGradient id="paint0_linear_1_5" x1="-2" y1="13" x2="223" y2="13" gradientUnits="userSpaceOnUse">
<stop stop-color="#B1A172"/>
<stop offset="1" stop-color="#E79548"/>
</linearGradient>
</defs>
</svg>
